<svg width="203" height="60" viewBox="0 0 203 60" fill="none" xmlns="http://www.w3.org/2000/svg">
<g filter="url(#filter0_d)">
<path d="M16 24C16 18.3431 16 15.5147 17.7574 13.7574C19.5147 12 22.3431 12 28 12H175C180.657 12 183.485 12 185.243 13.7574C187 15.5147 187 18.3431 187 24V28C187 33.6569 187 36.4853 185.243 38.2426C183.485 40 180.657 40 175 40H28C22.3431 40 19.5147 40 17.7574 38.2426C16 36.4853 16 33.6569 16 28V24Z" fill="white"/>
<path d="M37.1268 30H35.4468L31.6428 24.252V30H29.9628V21.612H31.6428L35.4468 27.372V21.612H37.1268V30ZM44.967 26.532C44.967 26.772 44.951 26.988 44.919 27.18H40.059C40.099 27.66 40.267 28.036 40.563 28.308C40.859 28.58 41.223 28.716 41.655 28.716C42.279 28.716 42.723 28.448 42.987 27.912H44.799C44.607 28.552 44.239 29.08 43.695 29.496C43.151 29.904 42.483 30.108 41.691 30.108C41.051 30.108 40.475 29.968 39.963 29.688C39.459 29.4 39.063 28.996 38.775 28.476C38.495 27.956 38.355 27.356 38.355 26.676C38.355 25.988 38.495 25.384 38.775 24.864C39.055 24.344 39.447 23.944 39.951 23.664C40.455 23.384 41.035 23.244 41.691 23.244C42.323 23.244 42.887 23.38 43.383 23.652C43.887 23.924 44.275 24.312 44.547 24.816C44.827 25.312 44.967 25.884 44.967 26.532ZM43.227 26.052C43.219 25.62 43.063 25.276 42.759 25.02C42.455 24.756 42.083 24.624 41.643 24.624C41.227 24.624 40.875 24.752 40.587 25.008C40.307 25.256 40.135 25.604 40.071 26.052H43.227ZM55.4092 23.352L53.4652 30H51.6532L50.4412 25.356L49.2292 30H47.4052L45.4492 23.352H47.1532L48.3292 28.416L49.6012 23.352H51.3772L52.6252 28.404L53.8012 23.352H55.4092ZM60.8576 24.312C61.0736 24.008 61.3696 23.756 61.7456 23.556C62.1296 23.348 62.5656 23.244 63.0536 23.244C63.6216 23.244 64.1336 23.384 64.5896 23.664C65.0536 23.944 65.4176 24.344 65.6816 24.864C65.9536 25.376 66.0896 25.972 66.0896 26.652C66.0896 27.332 65.9536 27.936 65.6816 28.464C65.4176 28.984 65.0536 29.388 64.5896 29.676C64.1336 29.964 63.6216 30.108 63.0536 30.108C62.5656 30.108 62.1336 30.008 61.7576 29.808C61.3896 29.608 61.0896 29.356 60.8576 29.052V33.168H59.1776V23.352H60.8576V24.312ZM64.3736 26.652C64.3736 26.252 64.2896 25.908 64.1216 25.62C63.9616 25.324 63.7456 25.1 63.4736 24.948C63.2096 24.796 62.9216 24.72 62.6096 24.72C62.3056 24.72 62.0176 24.8 61.7456 24.96C61.4816 25.112 61.2656 25.336 61.0976 25.632C60.9376 25.928 60.8576 26.276 60.8576 26.676C60.8576 27.076 60.9376 27.424 61.0976 27.72C61.2656 28.016 61.4816 28.244 61.7456 28.404C62.0176 28.556 62.3056 28.632 62.6096 28.632C62.9216 28.632 63.2096 28.552 63.4736 28.392C63.7456 28.232 63.9616 28.004 64.1216 27.708C64.2896 27.412 64.3736 27.06 64.3736 26.652ZM70.2624 30.108C69.6224 30.108 69.0464 29.968 68.5344 29.688C68.0224 29.4 67.6184 28.996 67.3224 28.476C67.0344 27.956 66.8904 27.356 66.8904 26.676C66.8904 25.996 67.0384 25.396 67.3344 24.876C67.6384 24.356 68.0504 23.956 68.5704 23.676C69.0904 23.388 69.6704 23.244 70.3104 23.244C70.9504 23.244 71.5304 23.388 72.0504 23.676C72.5704 23.956 72.9784 24.356 73.2744 24.876C73.5784 25.396 73.7304 25.996 73.7304 26.676C73.7304 27.356 73.5744 27.956 73.2624 28.476C72.9584 28.996 72.5424 29.4 72.0144 29.688C71.4944 29.968 70.9104 30.108 70.2624 30.108ZM70.2624 28.644C70.5664 28.644 70.8504 28.572 71.1144 28.428C71.3864 28.276 71.6024 28.052 71.7624 27.756C71.9224 27.46 72.0024 27.1 72.0024 26.676C72.0024 26.044 71.8344 25.56 71.4984 25.224C71.1704 24.88 70.7664 24.708 70.2864 24.708C69.8064 24.708 69.4024 24.88 69.0744 25.224C68.7544 25.56 68.5944 26.044 68.5944 26.676C68.5944 27.308 68.7504 27.796 69.0624 28.14C69.3824 28.476 69.7824 28.644 70.2624 28.644ZM77.5068 30.108C76.9628 30.108 76.4748 30.012 76.0428 29.82C75.6108 29.62 75.2668 29.352 75.0108 29.016C74.7628 28.68 74.6268 28.308 74.6028 27.9H76.2948C76.3268 28.156 76.4508 28.368 76.6668 28.536C76.8908 28.704 77.1668 28.788 77.4948 28.788C77.8148 28.788 78.0628 28.724 78.2388 28.596C78.4228 28.468 78.5148 28.304 78.5148 28.104C78.5148 27.888 78.4028 27.728 78.1788 27.624C77.9628 27.512 77.6148 27.392 77.1348 27.264C76.6388 27.144 76.2308 27.02 75.9108 26.892C75.5988 26.764 75.3268 26.568 75.0948 26.304C74.8708 26.04 74.7588 25.684 74.7588 25.236C74.7588 24.868 74.8628 24.532 75.0708 24.228C75.2868 23.924 75.5908 23.684 75.9828 23.508C76.3828 23.332 76.8508 23.244 77.3868 23.244C78.1788 23.244 78.8108 23.444 79.2828 23.844C79.7548 24.236 80.0148 24.768 80.0628 25.44H78.4548C78.4308 25.176 78.3188 24.968 78.1188 24.816C77.9268 24.656 77.6668 24.576 77.3388 24.576C77.0348 24.576 76.7988 24.632 76.6308 24.744C76.4708 24.856 76.3908 25.012 76.3908 25.212C76.3908 25.436 76.5028 25.608 76.7268 25.728C76.9508 25.84 77.2988 25.956 77.7708 26.076C78.2508 26.196 78.6468 26.32 78.9588 26.448C79.2708 26.576 79.5388 26.776 79.7628 27.048C79.9948 27.312 80.1148 27.664 80.1228 28.104C80.1228 28.488 80.0148 28.832 79.7988 29.136C79.5908 29.44 79.2868 29.68 78.8868 29.856C78.4948 30.024 78.0348 30.108 77.5068 30.108ZM83.4578 24.732V27.948C83.4578 28.172 83.5098 28.336 83.6138 28.44C83.7258 28.536 83.9098 28.584 84.1658 28.584H84.9458V30H83.8898C82.4738 30 81.7658 29.312 81.7658 27.936V24.732H80.9738V23.352H81.7658V21.708H83.4578V23.352H84.9458V24.732H83.4578ZM88.6982 30.108C88.1542 30.108 87.6662 30.012 87.2342 29.82C86.8022 29.62 86.4582 29.352 86.2022 29.016C85.9542 28.68 85.8182 28.308 85.7942 27.9H87.4862C87.5182 28.156 87.6422 28.368 87.8582 28.536C88.0822 28.704 88.3582 28.788 88.6862 28.788C89.0062 28.788 89.2542 28.724 89.4302 28.596C89.6142 28.468 89.7062 28.304 89.7062 28.104C89.7062 27.888 89.5942 27.728 89.3702 27.624C89.1542 27.512 88.8062 27.392 88.3262 27.264C87.8302 27.144 87.4222 27.02 87.1022 26.892C86.7902 26.764 86.5182 26.568 86.2862 26.304C86.0622 26.04 85.9502 25.684 85.9502 25.236C85.9502 24.868 86.0542 24.532 86.2622 24.228C86.4782 23.924 86.7822 23.684 87.1742 23.508C87.5742 23.332 88.0422 23.244 88.5782 23.244C89.3702 23.244 90.0022 23.444 90.4742 23.844C90.9462 24.236 91.2062 24.768 91.2542 25.44H89.6462C89.6222 25.176 89.5102 24.968 89.3102 24.816C89.1182 24.656 88.8582 24.576 88.5302 24.576C88.2262 24.576 87.9902 24.632 87.8222 24.744C87.6622 24.856 87.5822 25.012 87.5822 25.212C87.5822 25.436 87.6942 25.608 87.9182 25.728C88.1422 25.84 88.4902 25.956 88.9622 26.076C89.4422 26.196 89.8382 26.32 90.1502 26.448C90.4622 26.576 90.7302 26.776 90.9542 27.048C91.1862 27.312 91.3062 27.664 91.3142 28.104C91.3142 28.488 91.2062 28.832 90.9902 29.136C90.7822 29.44 90.4782 29.68 90.0782 29.856C89.6862 30.024 89.2262 30.108 88.6982 30.108ZM95.1206 26.652C95.1206 25.98 95.2526 25.384 95.5166 24.864C95.7886 24.344 96.1526 23.944 96.6086 23.664C97.0726 23.384 97.5886 23.244 98.1566 23.244C98.6526 23.244 99.0846 23.344 99.4526 23.544C99.8286 23.744 100.129 23.996 100.353 24.3V23.352H102.045V30H100.353V29.028C100.137 29.34 99.8366 29.6 99.4526 29.808C99.0766 30.008 98.6406 30.108 98.1446 30.108C97.5846 30.108 97.0726 29.964 96.6086 29.676C96.1526 29.388 95.7886 28.984 95.5166 28.464C95.2526 27.936 95.1206 27.332 95.1206 26.652ZM100.353 26.676C100.353 26.268 100.273 25.92 100.113 25.632C99.9526 25.336 99.7366 25.112 99.4646 24.96C99.1926 24.8 98.9006 24.72 98.5886 24.72C98.2766 24.72 97.9886 24.796 97.7246 24.948C97.4606 25.1 97.2446 25.324 97.0766 25.62C96.9166 25.908 96.8366 26.252 96.8366 26.652C96.8366 27.052 96.9166 27.404 97.0766 27.708C97.2446 28.004 97.4606 28.232 97.7246 28.392C97.9966 28.552 98.2846 28.632 98.5886 28.632C98.9006 28.632 99.1926 28.556 99.4646 28.404C99.7366 28.244 99.9526 28.02 100.113 27.732C100.273 27.436 100.353 27.084 100.353 26.676ZM106.457 28.452L108.137 23.352H109.925L107.465 30H105.425L102.977 23.352H104.777L106.457 28.452ZM110.437 26.652C110.437 25.98 110.569 25.384 110.833 24.864C111.105 24.344 111.469 23.944 111.925 23.664C112.389 23.384 112.905 23.244 113.473 23.244C113.969 23.244 114.401 23.344 114.769 23.544C115.145 23.744 115.445 23.996 115.669 24.3V23.352H117.361V30H115.669V29.028C115.453 29.34 115.153 29.6 114.769 29.808C114.393 30.008 113.957 30.108 113.461 30.108C112.901 30.108 112.389 29.964 111.925 29.676C111.469 29.388 111.105 28.984 110.833 28.464C110.569 27.936 110.437 27.332 110.437 26.652ZM115.669 26.676C115.669 26.268 115.589 25.92 115.429 25.632C115.269 25.336 115.053 25.112 114.781 24.96C114.509 24.8 114.217 24.72 113.905 24.72C113.593 24.72 113.305 24.796 113.041 24.948C112.777 25.1 112.561 25.324 112.393 25.62C112.233 25.908 112.153 26.252 112.153 26.652C112.153 27.052 112.233 27.404 112.393 27.708C112.561 28.004 112.777 28.232 113.041 28.392C113.313 28.552 113.601 28.632 113.905 28.632C114.217 28.632 114.509 28.556 114.781 28.404C115.053 28.244 115.269 28.02 115.429 27.732C115.589 27.436 115.669 27.084 115.669 26.676ZM119.854 22.56C119.558 22.56 119.31 22.468 119.11 22.284C118.918 22.092 118.822 21.856 118.822 21.576C118.822 21.296 118.918 21.064 119.11 20.88C119.31 20.688 119.558 20.592 119.854 20.592C120.15 20.592 120.394 20.688 120.586 20.88C120.786 21.064 120.886 21.296 120.886 21.576C120.886 21.856 120.786 22.092 120.586 22.284C120.394 22.468 120.15 22.56 119.854 22.56ZM120.682 23.352V30H119.002V23.352H120.682ZM124.022 21.12V30H122.342V21.12H124.022ZM125.25 26.652C125.25 25.98 125.382 25.384 125.646 24.864C125.918 24.344 126.282 23.944 126.738 23.664C127.202 23.384 127.718 23.244 128.286 23.244C128.782 23.244 129.214 23.344 129.582 23.544C129.958 23.744 130.258 23.996 130.482 24.3V23.352H132.174V30H130.482V29.028C130.266 29.34 129.966 29.6 129.582 29.808C129.206 30.008 128.77 30.108 128.274 30.108C127.714 30.108 127.202 29.964 126.738 29.676C126.282 29.388 125.918 28.984 125.646 28.464C125.382 27.936 125.25 27.332 125.25 26.652ZM130.482 26.676C130.482 26.268 130.402 25.92 130.242 25.632C130.082 25.336 129.866 25.112 129.594 24.96C129.322 24.8 129.03 24.72 128.718 24.72C128.406 24.72 128.118 24.796 127.854 24.948C127.59 25.1 127.374 25.324 127.206 25.62C127.046 25.908 126.966 26.252 126.966 26.652C126.966 27.052 127.046 27.404 127.206 27.708C127.374 28.004 127.59 28.232 127.854 28.392C128.126 28.552 128.414 28.632 128.718 28.632C129.03 28.632 129.322 28.556 129.594 28.404C129.866 28.244 130.082 28.02 130.242 27.732C130.402 27.436 130.482 27.084 130.482 26.676ZM135.494 24.324C135.71 24.004 136.006 23.744 136.382 23.544C136.766 23.344 137.202 23.244 137.69 23.244C138.258 23.244 138.77 23.384 139.226 23.664C139.69 23.944 140.054 24.344 140.318 24.864C140.59 25.376 140.726 25.972 140.726 26.652C140.726 27.332 140.59 27.936 140.318 28.464C140.054 28.984 139.69 29.388 139.226 29.676C138.77 29.964 138.258 30.108 137.69 30.108C137.194 30.108 136.758 30.012 136.382 29.82C136.014 29.62 135.718 29.364 135.494 29.052V30H133.814V21.12H135.494V24.324ZM139.01 26.652C139.01 26.252 138.926 25.908 138.758 25.62C138.598 25.324 138.382 25.1 138.11 24.948C137.846 24.796 137.558 24.72 137.246 24.72C136.942 24.72 136.654 24.8 136.382 24.96C136.118 25.112 135.902 25.336 135.734 25.632C135.574 25.928 135.494 26.276 135.494 26.676C135.494 27.076 135.574 27.424 135.734 27.72C135.902 28.016 136.118 28.244 136.382 28.404C136.654 28.556 136.942 28.632 137.246 28.632C137.558 28.632 137.846 28.552 138.11 28.392C138.382 28.232 138.598 28.004 138.758 27.708C138.926 27.412 139.01 27.06 139.01 26.652ZM143.627 21.12V30H141.947V21.12H143.627ZM151.467 26.532C151.467 26.772 151.451 26.988 151.419 27.18H146.559C146.599 27.66 146.767 28.036 147.063 28.308C147.359 28.58 147.723 28.716 148.155 28.716C148.779 28.716 149.223 28.448 149.487 27.912H151.299C151.107 28.552 150.739 29.08 150.195 29.496C149.651 29.904 148.983 30.108 148.191 30.108C147.551 30.108 146.975 29.968 146.463 29.688C145.959 29.4 145.563 28.996 145.275 28.476C144.995 27.956 144.855 27.356 144.855 26.676C144.855 25.988 144.995 25.384 145.275 24.864C145.555 24.344 145.947 23.944 146.451 23.664C146.955 23.384 147.535 23.244 148.191 23.244C148.823 23.244 149.387 23.38 149.883 23.652C150.387 23.924 150.775 24.312 151.047 24.816C151.327 25.312 151.467 25.884 151.467 26.532ZM149.727 26.052C149.719 25.62 149.563 25.276 149.259 25.02C148.955 24.756 148.583 24.624 148.143 24.624C147.727 24.624 147.375 24.752 147.087 25.008C146.807 25.256 146.635 25.604 146.571 26.052H149.727Z" fill="#0087FF"/>
<rect x="163.611" y="23.2469" width="1" height="10" rx="0.5" transform="rotate(-45 163.611 23.2469)" fill="#C4C4C4"/>
<rect x="170.682" y="22.5399" width="1" height="10" rx="0.5" transform="rotate(45 170.682 22.5399)" fill="#C4C4C4"/>
</g>
<defs>
<filter id="filter0_d" x="0" y="0" width="203" height="60" filterUnits="userSpaceOnUse" color-interpolation-filters="sRGB">
<feFlood flood-opacity="0" result="BackgroundImageFix"/>
<feColorMatrix in="SourceAlpha" type="matrix" values="0 0 0 0 0 0 0 0 0 0 0 0 0 0 0 0 0 0 127 0" result="hardAlpha"/>
<feOffset dy="4"/>
<feGaussianBlur stdDeviation="8"/>
<feColorMatrix type="matrix" values="0 0 0 0 0 0 0 0 0 0 0 0 0 0 0 0 0 0 0.05 0"/>
<feBlend mode="normal" in2="BackgroundImageFix" result="effect1_dropShadow"/>
<feBlend mode="normal" in="SourceGraphic" in2="effect1_dropShadow" result="shape"/>
</filter>
</defs>
</svg>
